<?xml version="1.0" standalone="no"?>
<!DOCTYPE svg PUBLIC "-//W3C//DTD SVG 20010904//EN"
 "http://www.w3.org/TR/2001/REC-SVG-20010904/DTD/svg10.dtd">
<svg version="1.0" xmlns="http://www.w3.org/2000/svg"
 width="3464.000000pt" height="3464.000000pt" viewBox="0 0 3464.000000 3464.000000"
 preserveAspectRatio="xMidYMid meet">
<metadata>
Created by potrace 1.16, written by Peter Selinger 2001-2019
</metadata>
<g transform="translate(0.000000,3464.000000) scale(0.100000,-0.100000)"
fill="#000000" stroke="none">
<path d="M15163 25173 l-33 -4 0 -80 0 -79 205 0 c176 0 205 2 205 15 0 10
-11 15 -35 15 l-35 0 0 65 c0 50 -3 65 -15 65 -8 0 -70 2 -137 3 -68 2 -138 2
-155 0z"/>
<path d="M13235 24990 c-3 -5 -17 -10 -31 -10 l-24 0 0 -220 0 -220 40 0 40 0
0 224 c0 204 -6 257 -25 226z"/>
<path d="M12780 24970 c0 -5 -20 -10 -44 -10 -52 0 -56 -7 -56 -93 l0 -62 -76
-76 c-63 -64 -76 -82 -81 -117 -4 -32 -1 -47 16 -68 12 -15 21 -41 21 -60 l0
-34 158 0 c88 0 200 -3 250 -6 l92 -7 0 272 0 271 -140 0 c-87 0 -140 -4 -140
-10z"/>
<path d="M12385 24930 c-17 -19 -19 -38 -17 -192 1 -95 5 -174 7 -177 3 -2 5
45 5 105 l0 110 75 74 c41 41 75 80 75 87 0 9 -19 13 -63 13 -52 0 -67 -4 -82
-20z"/>
<path d="M14942 24809 c-3 -115 -13 -143 -63 -163 -22 -9 -64 -16 -93 -16 -46
0 -56 -4 -69 -24 -14 -21 -14 -26 -2 -36 21 -17 76 -49 98 -56 9 -4 17 -10 17
-15 0 -5 9 -9 20 -9 12 0 20 -7 20 -17 0 -19 57 -73 77 -73 7 0 13 -4 13 -10
0 -5 11 -10 25 -10 l25 0 0 159 c0 87 -3 186 -6 220 -6 55 -9 61 -30 61 -19 0
-23 6 -27 38 -2 20 -4 -2 -5 -49z"/>
<path d="M16750 24710 l0 -130 35 0 35 0 0 130 0 130 -35 0 -35 0 0 -130z"/>
<path d="M14226 24734 c-4 -14 -4 -64 0 -109 7 -83 6 -84 -25 -123 -32 -41
-39 -62 -21 -62 6 0 10 -13 10 -30 0 -24 4 -30 21 -30 19 0 20 -4 16 -57 -10
-106 -16 -123 -47 -123 -15 0 -35 -9 -45 -20 -10 -11 -24 -20 -32 -20 -41 0
-43 -15 -43 -344 l0 -316 30 0 c23 0 30 -5 30 -19 0 -10 14 -32 30 -49 17 -18
30 -35 30 -39 0 -13 47 -63 59 -63 8 0 11 189 11 715 0 412 -4 715 -9 715 -5
0 -12 -12 -15 -26z"/>
<path d="M17720 24639 c0 -16 56 -69 73 -69 9 0 19 -4 22 -10 3 -5 17 -10 31
-10 13 0 24 -4 24 -10 0 -5 11 -10 25 -10 13 0 40 -9 60 -20 20 -11 47 -20 60
-20 14 0 25 -4 25 -10 0 -5 13 -10 29 -10 17 0 33 -4 36 -10 3 -5 19 -10 36
-10 27 0 29 2 29 40 0 36 -3 40 -24 40 -14 0 -28 5 -31 10 -3 6 -19 10 -36 10
-16 0 -29 5 -29 10 0 6 -13 10 -29 10 -17 0 -33 5 -36 10 -3 6 -24 10 -46 10
-21 0 -39 5 -39 10 0 6 -14 10 -30 10 -17 0 -41 6 -53 14 -27 17 -97 28 -97
15z"/>
<path d="M17270 24585 c0 -22 -4 -25 -40 -25 l-40 0 0 -185 0 -185 39 0 c29 0
41 -5 45 -17 5 -16 21 -18 171 -15 l165 3 0 159 c0 152 -1 160 -19 160 -11 0
-23 4 -26 10 -3 5 -23 17 -43 26 -20 8 -45 20 -54 25 -10 5 -27 9 -38 9 -11 0
-20 5 -20 10 0 6 -11 10 -25 10 -14 0 -25 5 -25 10 0 6 -11 10 -24 10 -14 0
-28 5 -31 10 -12 20 -35 10 -35 -15z"/>
<path d="M17720 24311 c0 -60 3 -123 6 -140 6 -27 11 -31 40 -31 18 0 36 -4
39 -10 3 -5 24 -10 45 -10 21 0 42 -4 45 -10 3 -5 22 -10 41 -10 19 0 34 -4
34 -10 0 -5 16 -10 35 -10 19 0 35 -4 35 -10 0 -5 9 -10 20 -10 11 0 20 -4 20
-10 0 -5 8 -10 18 -10 10 0 23 -5 30 -12 9 -9 15 -8 27 8 11 14 14 49 15 137
l0 117 -29 0 c-17 0 -33 5 -36 10 -3 6 -24 10 -45 10 -21 0 -42 5 -45 10 -3 6
-19 10 -36 10 -16 0 -29 4 -29 10 0 5 -12 12 -27 16 -28 6 -63 19 -95 35 -10
5 -27 9 -38 9 -11 0 -20 5 -20 10 0 6 -11 10 -25 10 l-25 0 0 -109z"/>
<path d="M14670 24132 c0 -139 1 -252 3 -252 2 0 21 16 43 35 24 22 49 35 67
35 23 0 27 4 27 31 0 23 13 44 63 94 68 70 74 93 30 116 -15 8 -47 33 -72 57
-25 23 -52 42 -58 42 -7 0 -13 5 -13 10 0 6 -11 10 -25 10 -18 0 -25 5 -25 18
0 11 -9 27 -20 37 -20 18 -20 17 -20 -233z"/>
<path d="M18671 24277 c-1 -31 3 -40 19 -44 11 -3 20 -9 20 -14 0 -5 9 -9 20
-9 11 0 20 -4 20 -10 0 -5 9 -10 20 -10 11 0 20 -4 20 -10 0 -5 15 -16 34 -24
18 -8 37 -19 40 -25 4 -6 18 -11 30 -11 15 0 26 -7 29 -20 4 -15 14 -20 36
-20 24 0 31 -4 31 -20 0 -11 5 -20 10 -20 6 0 10 13 10 30 0 30 -32 70 -57 70
-7 0 -13 5 -13 10 0 6 -7 10 -15 10 -8 0 -15 5 -15 10 0 6 -9 10 -20 10 -11 0
-20 5 -20 10 0 6 -13 10 -29 10 -21 0 -30 6 -34 21 -3 11 -15 23 -26 26 -12 3
-21 9 -21 14 0 5 -9 9 -20 9 -11 0 -20 5 -20 10 0 6 -9 10 -19 10 -11 0 -22 6
-24 13 -3 6 -6 -5 -6 -26z"/>
<path d="M12586 24268 c10 -13 152 -157 314 -321 162 -163 302 -310 310 -326
l15 -29 48 40 c45 39 47 42 47 94 l0 54 -32 0 c-28 1 -49 16 -130 94 l-98 93
0 146 c0 80 -3 152 -6 161 -5 14 -37 16 -247 16 l-240 0 19 -22z"/>
<path d="M13250 24281 c0 -6 -15 -11 -32 -13 l-33 -3 -3 -95 -3 -95 41 -40 40
-39 0 147 c0 81 -2 147 -5 147 -3 0 -5 -4 -5 -9z"/>
<path d="M18286 24224 c-3 -8 -6 -76 -6 -151 0 -126 1 -135 20 -140 11 -3 20
-9 20 -14 0 -5 13 -9 29 -9 20 0 30 -6 34 -20 5 -18 14 -20 91 -20 l86 0 0
121 c0 120 -8 149 -39 149 -6 0 -26 9 -46 20 -20 11 -44 20 -55 20 -11 0 -20
5 -20 10 0 6 -8 10 -17 10 -9 0 -24 6 -32 14 -27 23 -58 28 -65 10z"/>
<path d="M18670 23894 c0 -178 2 -184 74 -184 25 0 48 -4 51 -10 3 -5 33 -10
66 -10 33 0 59 -4 59 -10 0 -22 27 -7 58 32 43 54 43 97 1 138 -18 16 -38 30
-45 30 -8 0 -14 5 -14 10 0 6 -11 10 -25 10 -18 0 -25 5 -25 20 0 11 -8 24
-17 27 -10 4 -27 15 -37 25 -11 10 -32 18 -47 18 -18 0 -28 6 -32 20 -3 11
-12 20 -21 20 -9 0 -16 5 -16 10 0 6 -7 10 -15 10 -13 0 -15 -24 -15 -156z"/>
<path d="M11900 24005 c8 -11 50 -55 93 -98 l79 -79 -4 -58 c-2 -50 0 -60 15
-64 11 -3 17 -14 17 -31 0 -34 53 -86 58 -59 3 13 15 16 68 12 56 -3 64 -2 64
14 0 14 8 18 36 18 21 0 33 4 29 10 -3 6 -31 10 -62 10 l-56 0 -169 168 c-185
182 -189 186 -168 157z"/>
<path d="M17338 23993 c-27 -2 -48 -8 -48 -14 0 -5 -22 -9 -50 -9 l-50 0 0
-315 0 -314 33 6 c20 4 48 24 78 55 36 38 52 48 78 48 19 0 46 10 65 25 25 19
45 25 84 25 l52 0 0 48 c0 26 7 56 15 66 12 16 15 55 15 185 0 91 -4 172 -9
179 -8 14 -175 24 -263 15z"/>
<path d="M10370 23980 c0 -5 -6 -10 -13 -10 -20 0 -77 -54 -77 -73 0 -10 -8
-17 -19 -17 -31 0 -31 -26 0 -56 29 -28 29 -28 44 -7 8 11 28 26 45 33 16 7
30 16 30 21 0 5 11 15 25 21 14 6 25 17 25 25 0 7 6 13 13 13 14 1 -48 60 -63
60 -6 0 -10 -4 -10 -10z"/>
<path d="M13800 23530 l0 -450 30 0 30 0 0 450 0 450 -30 0 -30 0 0 -450z"/>
<path d="M17720 23795 c0 -96 2 -175 5 -175 13 0 175 171 175 184 0 10 9 16
25 16 15 0 25 6 25 14 0 7 10 20 22 28 24 16 17 38 -12 38 -10 0 -22 5 -25 10
-3 6 -15 10 -26 10 -11 0 -27 7 -35 15 -9 8 -28 15 -44 15 -16 0 -32 5 -35 10
-3 6 -22 10 -41 10 l-34 0 0 -175z"/>
<path d="M11490 23890 c0 -35 -3 -40 -23 -40 -60 0 -61 -50 -2 -115 l45 -50 0
43 0 42 51 0 c44 0 56 -4 80 -30 16 -16 29 -37 29 -45 0 -8 9 -15 20 -15 16 0
20 7 20 30 0 29 1 30 50 30 45 0 54 -4 92 -40 44 -44 58 -46 73 -12 5 12 13
22 17 22 22 0 1 32 -57 90 -54 54 -65 61 -65 42 0 -19 -5 -22 -40 -22 -29 0
-40 -4 -40 -15 0 -12 -13 -15 -55 -15 l-55 0 0 55 0 55 -55 0 c-30 0 -55 4
-55 9 0 5 -7 11 -15 15 -12 4 -15 -3 -15 -34z"/>
<path d="M19270 23747 c0 -85 4 -137 10 -137 6 0 10 -16 10 -35 0 -28 4 -35
20 -35 11 0 20 -4 20 -10 0 -5 16 -10 35 -10 19 0 35 -4 35 -10 0 -5 16 -10
35 -10 30 0 35 -3 35 -24 0 -19 7 -25 43 -32 36 -8 43 -14 52 -41 6 -22 15
-33 27 -33 10 0 18 -4 18 -10 0 -5 9 -10 19 -10 12 0 21 -8 23 -21 2 -11 16
-28 33 -37 16 -9 37 -25 46 -34 9 -10 23 -18 32 -18 8 0 18 -6 20 -12 3 -8 6
-6 6 5 1 11 -6 17 -19 17 -17 0 -20 7 -20 43 0 34 -6 48 -30 70 -16 16 -30 33
-30 38 0 5 -8 9 -18 9 -10 0 -24 9 -32 20 -8 11 -23 20 -33 20 -9 0 -20 7 -23
15 -4 8 -15 15 -25 15 -10 0 -19 5 -19 10 0 6 -16 10 -35 10 l-35 0 0 55 c0
54 0 55 -30 55 -29 0 -30 2 -30 45 0 33 -4 45 -15 45 -10 0 -15 11 -15 35 0
29 -9 45 -55 92 l-55 57 0 -137z"/>
<path d="M16540 23835 c-12 -23 -11 -27 8 -46 17 -16 22 -31 22 -74 0 -30 4
-55 9 -55 4 0 20 9 35 21 24 19 26 26 26 100 l0 79 -43 0 c-36 0 -46 -4 -57
-25z"/>
<path d="M10870 23806 c0 -13 -4 -26 -9 -28 -5 -1 9 -23 30 -47 25 -28 39 -38
39 -27 0 13 11 16 55 16 30 0 55 -4 55 -10 0 -5 8 -6 17 -3 11 4 12 8 5 11 -7
2 -12 13 -12 24 0 23 -26 47 -52 48 -10 0 -18 4 -18 10 0 9 -62 30 -92 30 -12
0 -18 -8 -18 -24z"/>
<path d="M18122 23778 c-9 -9 -8 -16 5 -30 9 -10 20 -18 26 -18 5 0 25 -16 43
-34 19 -19 44 -38 54 -41 11 -4 20 -11 20 -16 0 -5 6 -9 13 -9 7 0 18 -9 25
-20 8 -13 23 -20 42 -20 25 0 30 -4 30 -25 0 -14 3 -25 8 -25 4 0 20 -11 36
-25 39 -33 46 -32 46 10 0 35 0 35 48 37 l47 1 -42 4 c-38 4 -43 7 -43 29 0
17 -5 24 -20 24 -11 0 -20 4 -20 8 0 13 -48 32 -80 32 -17 0 -30 5 -30 10 0 6
-9 10 -20 10 -15 0 -20 7 -20 25 0 21 -5 25 -29 25 -21 0 -32 6 -36 20 -3 11
-15 20 -26 20 -10 0 -19 5 -19 10 0 14 -43 13 -58 -2z"/>
<path d="M10545 23758 c-11 -7 -26 -18 -34 -26 -8 -7 -25 -18 -38 -23 -12 -4
-23 -15 -23 -23 0 -7 -9 -16 -20 -19 -17 -4 -20 -14 -20 -55 0 -45 -2 -51 -23
-54 -21 -3 -16 -10 45 -69 60 -59 68 -64 68 -43 0 22 4 24 54 24 59 0 106 -27
106 -61 0 -14 7 -19 25 -19 21 0 25 -5 25 -30 0 -26 4 -30 28 -30 22 0 59 -33
196 -170 152 -153 172 -170 202 -170 l34 0 0 112 0 112 -100 101 -100 102 0
61 c0 45 4 61 15 64 11 2 7 11 -14 36 -33 37 -41 40 -41 12 0 -18 -7 -20 -56
-20 l-55 0 -103 100 c-106 103 -127 114 -171 88z"/>
<path d="M13550 23463 c0 -161 2 -180 20 -203 11 -14 20 -33 20 -42 0 -11 5
-15 15 -12 13 5 15 39 15 220 l0 214 -35 0 -35 0 0 -177z"/>
<path d="M17870 23514 c-69 -69 -167 -164 -219 -211 l-94 -84 -58 2 c-58 2
-59 2 -120 -51 -34 -30 -57 -56 -51 -58 7 -2 12 -11 12 -20 0 -14 9 -16 60
-14 59 4 60 4 60 -23 l0 -28 26 27 c24 24 34 26 104 26 42 0 125 3 183 6 l106
7 12 -27 12 -27 34 33 34 33 -178 5 -178 5 -3 58 -3 57 157 0 157 0 88 85 88
85 56 0 c54 0 55 0 55 -30 0 -29 1 -30 50 -30 l50 0 0 34 c0 29 -5 37 -30 48
-16 7 -30 16 -30 20 0 5 -9 8 -19 8 -11 0 -22 9 -26 19 -3 11 -19 26 -35 33
-17 7 -30 17 -30 21 0 20 -83 77 -112 77 -11 0 -18 8 -18 20 0 11 -3 20 -8 20
-4 0 -63 -57 -132 -126z"/>
<path d="M9948 23580 c-21 -21 -38 -43 -38 -49 0 -22 -69 -81 -95 -81 -14 0
-25 -4 -25 -9 0 -5 -12 -11 -27 -14 -16 -3 -46 -10 -68 -17 -22 -6 -58 -16
-80 -21 -85 -21 -175 -79 -175 -113 0 -9 -4 -16 -10 -16 -5 0 -10 -7 -10 -15
0 -8 -8 -15 -18 -15 -10 0 -43 -23 -73 -50 -29 -28 -71 -65 -92 -83 -22 -18
-51 -42 -65 -54 -15 -13 -33 -23 -39 -23 -7 0 -13 -4 -13 -8 0 -4 -15 -16 -32
-27 -43 -25 -58 -40 -58 -59 0 -9 -7 -16 -15 -16 -8 0 -36 -20 -62 -45 l-47
-44 70 -73 c64 -66 74 -73 105 -70 19 2 38 8 44 13 5 5 28 9 51 9 24 0 46 5
49 10 3 6 35 10 70 10 35 0 67 5 70 10 3 6 36 10 73 10 55 0 71 4 85 20 9 11
17 27 17 35 0 8 4 15 10 15 5 0 13 12 17 28 3 15 23 61 44 102 20 41 49 100
64 130 15 30 38 73 51 95 14 22 27 48 31 58 3 9 9 17 14 17 5 0 9 7 9 16 0 8
6 21 13 28 6 7 21 25 32 40 11 15 34 43 51 62 17 19 37 47 45 62 8 15 22 34
31 43 10 9 18 24 18 33 0 10 8 16 21 16 21 0 49 21 49 38 0 12 -34 42 -46 41
-5 0 -26 -18 -46 -39z"/>
<path d="M10176 23425 c-8 -8 -22 -15 -30 -15 -9 0 -16 -5 -16 -10 0 -6 -15
-26 -32 -45 -18 -18 -46 -50 -63 -70 -16 -20 -36 -43 -42 -50 -7 -8 -13 -20
-13 -27 0 -8 -9 -20 -20 -28 -11 -8 -20 -20 -20 -27 0 -6 -11 -24 -25 -39 -14
-15 -25 -33 -25 -40 0 -8 -4 -14 -10 -14 -5 0 -10 -12 -10 -28 0 -16 -8 -32
-20 -40 -11 -7 -20 -21 -20 -32 0 -11 -4 -20 -10 -20 -5 0 -10 -7 -10 -16 0
-8 -7 -22 -15 -30 -8 -9 -15 -29 -15 -45 0 -16 -4 -29 -10 -29 -5 0 -10 -8
-10 -18 0 -10 -9 -24 -20 -32 -11 -8 -20 -22 -20 -32 0 -9 -4 -20 -10 -23 -5
-3 -10 -19 -10 -36 0 -16 -4 -29 -10 -29 -5 0 -10 -9 -10 -19 0 -11 -4 -23
-10 -26 -5 -3 -10 -17 -10 -31 0 -14 -7 -32 -15 -40 -8 -9 -15 -28 -15 -44 0
-16 -4 -32 -10 -35 -5 -3 -10 -24 -10 -45 0 -21 -4 -42 -10 -45 -5 -3 -10 -21
-10 -40 0 -19 -4 -36 -9 -39 -5 -3 -11 -17 -13 -30 -7 -37 17 -22 87 51 l61
63 122 0 122 0 0 -55 0 -55 -59 0 c-75 0 -98 -9 -149 -58 -48 -46 -50 -52 -22
-52 11 0 20 -4 20 -10 0 -6 62 -10 165 -10 l165 0 0 -50 0 -50 200 0 200 0 0
50 0 50 280 0 280 0 0 44 c0 25 5 48 10 51 21 13 9 25 -25 25 l-35 0 0 -55 0
-55 -185 0 -185 0 0 55 0 55 73 1 c39 0 66 3 60 6 -8 3 -13 25 -13 59 l0 54
185 0 c158 0 187 2 192 15 3 9 -1 23 -9 33 -8 9 -21 32 -29 50 -8 17 -17 32
-21 32 -5 0 -8 5 -8 12 0 21 -65 97 -83 98 -20 0 -47 23 -47 40 0 6 -58 69
-130 141 -71 71 -130 136 -130 144 0 8 -4 15 -10 15 -5 0 -10 7 -10 15 0 8 -4
23 -9 33 -5 9 -16 32 -23 50 -9 21 -20 32 -33 32 -13 0 -87 66 -202 180 -160
158 -184 178 -197 165z m-142 -445 c25 -9 26 -13 26 -84 0 -74 0 -75 -32 -90
-17 -9 -55 -16 -85 -16 -75 0 -93 20 -93 102 0 84 14 98 96 98 34 0 74 -4 88
-10z m314 -294 c8 -4 12 -35 12 -81 0 -73 0 -74 -32 -89 -35 -18 -104 -21
-142 -6 -25 9 -26 13 -26 94 0 58 4 86 13 90 17 8 160 1 175 -8z"/>
<path d="M13300 23371 c0 -5 -10 -11 -22 -13 -14 -2 -24 -11 -26 -23 -2 -11
-6 -27 -9 -35 -3 -8 -4 -43 -3 -78 1 -47 -2 -63 -14 -68 -8 -3 -12 -12 -9 -20
7 -19 23 -18 23 1 0 11 11 15 40 15 l40 0 0 115 c0 70 -4 115 -10 115 -5 0
-10 -4 -10 -9z"/>
<path d="M16527 23310 c-5 -19 -14 -20 -140 -20 l-136 0 -33 -30 -32 -30 47 0
c26 0 47 -4 47 -10 0 -24 41 -50 79 -50 33 0 47 8 102 60 54 50 70 59 102 60
30 0 37 4 37 20 0 16 -7 20 -34 20 -25 0 -35 -5 -39 -20z"/>
<path d="M11310 23140 l0 -180 58 0 c32 0 63 -5 70 -12 16 -16 15 -109 -2
-130 -9 -12 -27 -18 -55 -18 l-42 0 18 -25 c10 -13 28 -25 41 -25 26 0 42 -33
42 -86 0 -26 4 -34 18 -34 10 0 25 11 32 25 7 14 18 25 23 25 5 0 22 14 37 30
15 17 32 30 37 30 6 0 18 9 28 20 15 16 19 42 23 129 l4 109 -163 161 c-90 88
-165 161 -166 161 -2 0 -3 -81 -3 -180z"/>
<path d="M19270 23039 c-102 -104 -193 -189 -202 -189 -14 0 -18 -9 -18 -42
l0 -43 154 -3 153 -2 7 31 c3 17 6 47 6 65 0 33 1 34 43 34 34 0 50 7 82 35
28 24 50 35 73 35 30 0 32 2 32 33 0 18 7 42 15 53 8 10 15 24 15 30 0 13 -78
94 -91 94 -5 0 -23 14 -41 30 -17 17 -34 29 -37 28 -3 0 -89 -86 -191 -189z"/>
<path d="M12210 23100 l0 -105 50 3 50 4 0 52 c0 49 -3 54 -50 101 l-50 49 0
-104z"/>
<path d="M12430 23040 l0 -110 35 0 35 0 0 110 0 110 -35 0 -35 0 0 -110z"/>
<path d="M16546 23081 l-30 -31 -117 0 c-68 0 -120 -4 -124 -10 -3 -5 -25 -10
-47 -10 -40 0 -41 0 -23 -20 10 -11 31 -20 46 -20 38 0 49 -24 49 -103 0 -85
-13 -97 -106 -97 -77 0 -94 9 -94 50 0 15 -9 35 -20 45 -20 18 -20 17 -20 -19
0 -26 -7 -42 -25 -58 -29 -25 -33 -48 -7 -48 32 0 42 -22 42 -90 0 -77 -16
-100 -68 -100 -23 0 -32 -5 -32 -17 0 -13 3 -14 12 -5 7 7 40 12 77 12 51 0
62 3 53 12 -16 16 -16 160 0 176 14 14 164 17 172 3 7 -11 54 -20 58 -12 2 4
19 16 38 29 l35 22 -32 0 c-22 0 -36 6 -43 19 -14 27 -13 154 2 169 16 16 170
16 186 0 9 -9 21 -3 52 27 37 37 38 39 20 52 -10 7 -20 22 -22 34 -3 19 -5 18
-32 -10z"/>
<path d="M18368 22673 c-38 -38 -68 -71 -68 -75 0 -3 18 -9 40 -13 31 -5 40
-11 40 -27 0 -25 27 -47 58 -48 19 0 22 5 22 40 0 23 7 52 16 65 16 24 16 25
-9 25 -24 0 -26 4 -29 50 l-3 51 -67 -68z"/>
<path d="M8771 22648 c-5 -14 -14 -29 -20 -32 -13 -8 -41 -65 -41 -83 0 -7 -4
-13 -10 -13 -5 0 -10 -9 -10 -20 0 -11 -4 -20 -9 -20 -11 0 -41 -56 -41 -77 0
-7 -4 -13 -10 -13 -5 0 -10 -9 -10 -19 0 -11 -4 -23 -10 -26 -5 -3 -10 -13
-10 -21 0 -8 5 -14 10 -14 6 0 10 6 10 13 0 7 9 19 20 27 11 8 20 20 20 27 0
7 18 32 40 54 22 23 40 45 40 49 0 11 68 81 97 101 l22 15 -39 39 -39 38 -10
-25z"/>
<path d="M12640 22576 c0 -74 0 -75 -27 -79 l-28 -4 28 -2 27 -1 0 -110 0
-110 -55 0 -55 0 0 35 c0 34 -1 35 -40 35 -40 0 -40 0 -40 39 0 21 3 59 6 85
6 44 8 46 40 46 30 0 34 3 34 25 0 23 -4 25 -40 25 l-40 0 0 -45 0 -45 -45 0
-45 0 0 -60 c0 -71 -11 -80 -93 -80 -40 0 -56 4 -61 15 -3 8 -12 15 -21 15
-12 0 -15 14 -15 69 0 79 2 81 86 81 51 0 54 1 54 25 0 23 -3 25 -50 25 -38 0
-50 -4 -50 -15 0 -12 -13 -15 -55 -15 -48 0 -55 2 -55 20 0 17 -7 20 -44 20
-24 0 -51 2 -58 5 -11 4 -13 -2 -10 -27 l4 -33 56 4 c71 4 82 -9 82 -100 0
-64 21 -129 43 -129 4 0 7 -8 7 -18 0 -10 9 -24 20 -32 12 -8 20 -26 20 -42 0
-16 5 -37 10 -48 6 -11 15 -29 20 -40 6 -11 10 -27 10 -35 0 -8 5 -15 10 -15
6 0 10 -8 10 -19 0 -10 7 -24 15 -31 8 -7 15 -23 15 -36 0 -13 5 -24 10 -24 6
0 10 -20 10 -45 0 -25 5 -45 10 -45 6 0 10 -26 10 -59 0 -33 5 -63 10 -66 6
-3 10 -26 10 -51 0 -24 4 -44 9 -44 5 0 11 -6 13 -14 2 -12 8 -11 27 5 22 18
22 19 2 19 -29 0 -41 29 -41 99 0 51 3 62 22 75 25 18 113 21 152 6 25 -9 26
-13 26 -90 0 -76 1 -80 23 -80 21 0 22 3 19 74 -4 80 9 106 52 106 22 0 24 6
30 71 4 39 10 77 13 85 4 10 -4 14 -27 14 -40 0 -140 47 -140 66 0 8 -4 14
-10 14 -6 0 -10 35 -10 85 l0 85 55 0 55 0 0 -39 c0 -25 5 -41 15 -45 11 -4
15 2 15 24 0 17 5 30 10 30 6 0 10 16 10 35 l0 35 53 0 c29 0 58 -5 63 -10 14
-14 94 104 94 139 0 22 -6 29 -32 36 -24 8 -34 18 -40 42 -5 17 -16 34 -26 37
-9 3 -33 19 -52 36 -19 16 -39 30 -43 30 -4 0 -17 9 -29 20 -12 11 -25 20 -30
20 -4 0 -8 -33 -8 -74z"/>
<path d="M19260 22640 c-8 -5 -41 -10 -72 -10 -31 0 -60 -4 -63 -10 -3 -5 -21
-10 -39 -10 -38 0 -56 -15 -56 -47 0 -16 -6 -23 -20 -23 -11 0 -20 -5 -20 -10
0 -6 -16 -36 -35 -66 -19 -30 -35 -63 -35 -74 0 -11 -6 -20 -14 -20 -7 0 -33
-18 -57 -40 -42 -38 -48 -40 -106 -40 l-63 0 0 51 c0 48 3 53 55 105 30 30 55
60 55 66 0 6 9 19 21 29 11 10 19 27 17 38 -2 16 -29 -5 -136 -111 -73 -72
-130 -134 -125 -137 4 -3 14 -18 22 -33 8 -16 18 -28 23 -28 4 0 8 -9 8 -20 0
-11 5 -20 10 -20 6 0 10 -6 10 -13 0 -7 16 -44 35 -83 19 -38 35 -75 35 -81 0
-7 5 -13 10 -13 6 0 10 -11 10 -24 0 -14 5 -28 10 -31 6 -3 10 -17 10 -30 0
-13 5 -27 10 -30 6 -3 10 -19 10 -36 0 -26 3 -29 30 -29 28 0 30 -3 30 -35 0
-35 1 -35 43 -35 39 0 48 5 105 63 58 59 62 65 62 110 0 46 -1 47 -30 47 -30
0 -30 1 -30 55 0 30 5 55 10 55 6 0 10 6 10 13 0 6 57 71 126 142 l126 130 -2
82 c-1 80 0 82 30 104 48 36 30 82 -20 49z"/>
<path d="M9375 22588 c-61 -7 -131 -20 -195 -35 -31 -8 -35 -13 -38 -46 l-3
-37 55 0 c38 0 56 -4 56 -12 1 -14 55 -52 89 -63 19 -6 21 -15 22 -88 1 -45 4
-72 6 -61 2 12 13 24 24 27 10 3 19 13 19 22 0 9 7 23 15 31 8 9 15 24 15 34
0 10 5 22 10 25 6 3 10 19 10 35 0 16 4 31 9 34 5 3 11 23 14 43 3 21 8 50 12
64 6 24 4 27 -27 30 -18 2 -60 1 -93 -3z"/>
<path d="M8970 22461 c0 -14 -6 -21 -18 -21 -22 0 -72 -53 -72 -75 0 -8 -7
-15 -16 -15 -15 0 -44 -23 -44 -34 0 -3 18 -6 41 -6 46 0 79 -14 79 -35 0 -36
29 -45 139 -45 l108 0 -4 28 c-7 46 -26 102 -35 102 -4 0 -8 22 -8 49 l0 49
-62 5 c-35 2 -73 8 -85 12 -19 6 -23 4 -23 -14z"/>
<path d="M18180 22425 c0 -31 -3 -35 -25 -35 -23 0 -25 -4 -25 -45 0 -38 3
-45 20 -45 17 0 20 -7 20 -51 0 -40 -5 -56 -21 -70 -20 -17 -21 -30 -26 -246
l-5 -228 131 129 131 129 85 -6 c78 -6 85 -5 85 13 0 22 -63 144 -90 173 -11
11 -20 27 -20 34 0 23 -43 63 -67 63 -16 0 -23 6 -23 20 0 11 -4 20 -10 20 -5
0 -10 11 -10 25 0 18 -5 25 -20 25 -13 0 -20 7 -20 20 0 16 -7 20 -30 20 -26
0 -30 3 -30 29 0 20 -8 34 -25 45 l-25 16 0 -35z"/>
<path d="M11468 22288 c-7 -13 -15 -53 -18 -90 l-5 -68 77 0 78 0 0 -35 c0
-33 2 -35 31 -35 19 0 37 -7 45 -17 19 -25 18 -127 -1 -143 -20 -17 -19 -27 5
-33 17 -4 20 -14 20 -61 l0 -56 -47 0 c-27 0 -65 3 -85 6 l-38 7 0 53 c0 41
-4 54 -15 54 -12 0 -15 15 -15 74 0 73 0 73 -25 68 -22 -4 -25 -9 -25 -49 0
-51 -24 -93 -52 -93 -11 0 -36 -13 -55 -30 -21 -19 -45 -30 -64 -30 l-30 0 7
-89 7 -89 -156 -7 c-147 -7 -231 -4 -319 11 l-38 6 0 -41 0 -41 -193 0 c-180
0 -195 -1 -212 -19 -17 -20 -16 -20 46 -23 l64 -3 3 -67 3 -68 152 0 153 0 34
35 34 35 93 0 93 0 0 54 c0 85 1 86 90 86 88 0 110 -14 110 -70 0 -32 0 -33
20 -15 11 10 20 28 20 40 0 36 20 45 95 45 42 0 76 -5 83 -12 16 -16 16 -150
0 -166 -7 -7 -29 -12 -49 -12 -20 0 -42 -7 -49 -15 -11 -13 -7 -15 24 -15 20
0 36 5 36 10 0 6 25 10 55 10 30 0 55 -4 55 -10 0 -6 28 -10 65 -10 58 0 65 2
65 20 0 18 -7 20 -68 20 -40 0 -73 5 -80 12 -16 16 -16 140 0 156 7 7 44 12
95 12 l83 0 0 -57 1 -58 29 34 c16 19 30 43 32 55 3 19 11 21 83 24 95 4 105
-4 105 -88 0 -73 -18 -100 -69 -100 -29 0 -44 -7 -71 -35 -28 -29 -41 -35 -77
-35 -26 0 -43 -5 -43 -12 0 -6 23 -33 50 -59 l50 -47 0 -246 c0 -134 -4 -255
-9 -268 -9 -23 -8 -23 59 -20 60 3 71 1 90 -18 19 -19 22 -31 18 -91 -2 -37
-6 -71 -10 -74 -3 -4 -40 -9 -81 -12 -67 -5 -76 -4 -96 16 -17 17 -21 33 -21
79 0 32 5 63 12 70 7 7 9 12 4 12 -22 0 -36 -33 -36 -83 0 -57 -19 -87 -53
-87 -10 0 -17 -8 -17 -20 0 -13 7 -20 18 -20 36 0 52 -32 52 -102 0 -73 -16
-98 -63 -98 -20 0 -27 -5 -27 -20 0 -16 7 -20 33 -20 47 0 57 -15 57 -87 0
-49 3 -63 15 -63 12 0 15 13 15 61 0 75 13 88 88 89 51 0 52 1 52 30 0 30 -1
30 -53 30 -29 0 -58 5 -65 12 -7 7 -12 41 -12 84 l0 71 46 7 c95 13 124 8 134
-20 6 -14 10 -39 10 -55 0 -28 1 -29 53 -29 73 0 87 -16 87 -102 0 -52 -4 -68
-20 -83 -11 -10 -20 -23 -19 -29 0 -6 3 -6 6 2 2 6 11 12 19 12 8 0 14 5 14
10 0 6 10 10 23 10 12 0 30 7 40 14 15 12 17 33 17 174 0 96 4 163 10 167 6 3
10 39 10 79 0 92 20 116 96 116 l49 0 -3 57 c-2 32 -8 62 -13 68 -5 5 -9 31
-9 57 l0 48 -38 0 c-54 0 -62 13 -62 95 0 78 15 105 58 105 34 0 13 42 -27 52
l-31 9 0 77 c0 74 1 79 31 105 l31 27 -32 0 -33 0 7 137 c4 79 11 140 17 144
8 5 8 9 0 13 -6 4 -11 27 -11 51 0 24 -4 47 -10 50 -5 3 -10 19 -10 36 0 16
-4 29 -10 29 -5 0 -10 9 -10 20 0 11 -4 28 -9 38 -5 9 -22 45 -38 80 -15 34
-31 62 -35 62 -5 0 -8 9 -8 20 0 11 -4 20 -10 20 -5 0 -10 11 -10 24 0 30 -21
48 -40 36 -22 -14 -114 -12 -128 2 -7 7 -12 23 -12 36 l0 25 -25 -27 c-22 -24
-30 -26 -112 -26 l-89 0 -64 65 c-35 36 -70 65 -77 65 -7 0 -18 -10 -25 -22z
m432 -247 c5 -11 10 -47 10 -80 0 -78 -13 -91 -92 -91 -86 0 -98 13 -98 105 0
39 3 75 7 78 3 4 41 7 84 7 67 0 80 -3 89 -19z m238 -225 c8 -4 12 -35 12 -81
0 -73 0 -74 -32 -89 -46 -23 -129 -21 -156 4 -18 17 -22 32 -22 82 0 90 14
101 111 96 41 -3 81 -8 87 -12z m10 -238 c7 -7 12 -40 12 -77 0 -87 -13 -101
-97 -101 -97 0 -103 6 -103 99 0 43 3 81 7 84 12 12 168 8 181 -5z m3 -219 c5
-8 9 -42 9 -76 0 -86 -17 -103 -104 -103 -86 0 -96 10 -96 104 0 44 5 77 13
85 17 18 165 10 178 -10z m-13 -245 c19 -13 22 -24 22 -75 0 -94 -6 -99 -104
-99 -98 0 -96 -2 -96 100 0 55 4 71 18 79 27 16 134 13 160 -5z"/>
<path d="M10800 21971 l0 -49 83 -4 c115 -5 127 1 127 57 l0 45 -105 0 -105 0
0 -49z"/>
<path d="M14214 21979 c-57 -21 -137 -86 -158 -128 -12 -23 -12 -31 2 -61 l16
-35 4 48 3 47 58 0 c53 0 60 3 95 39 31 32 37 44 34 74 l-3 35 -51 -19z"/>
<path d="M20781 21943 l-1 -53 -45 0 -45 0 0 -155 c0 -148 1 -155 20 -155 13
0 20 -7 20 -20 0 -15 7 -20 25 -20 23 0 25 -3 25 -50 0 -49 1 -50 30 -50 28 0
30 -3 30 -36 0 -42 11 -66 51 -103 16 -16 29 -32 29 -37 0 -5 9 -17 20 -27 20
-17 20 -16 20 133 l0 149 -27 13 c-16 7 -29 23 -31 36 -2 12 -8 22 -13 22 -5
0 -9 22 -9 49 0 36 -4 51 -16 55 -15 6 -16 19 -10 111 6 90 5 106 -8 111 -9 3
-16 12 -16 20 0 8 -9 14 -19 14 -12 0 -21 8 -24 23 -2 12 -5 -2 -6 -30z"/>
<path d="M8900 21900 c12 -17 30 -35 41 -40 10 -6 19 -17 19 -24 0 -7 8 -20
18 -29 16 -15 54 -17 325 -17 l307 0 0 25 0 25 -100 0 -100 0 0 45 0 45 -266
0 -265 0 21 -30z"/>
<path d="M9780 21706 c0 -23 -6 -36 -17 -42 -10 -4 -154 -9 -320 -12 l-302 -4
55 -51 c31 -29 94 -89 141 -134 l85 -83 270 0 271 0 -7 38 c-3 20 -6 44 -6 53
0 11 -12 19 -35 23 l-34 7 -3 77 -3 77 -32 10 c-29 8 -33 14 -33 42 0 23 -5
33 -15 33 -10 0 -15 -10 -15 -34z"/>
<path d="M16390 21671 l0 -50 -45 -7 c-48 -7 -54 -14 -30 -34 13 -11 18 -10
31 8 10 15 26 22 48 22 19 0 39 7 46 15 10 12 44 15 186 15 l174 0 0 40 0 40
-205 0 -205 0 0 -49z"/>
<path d="M18272 21476 l-152 -153 0 -62 c0 -48 3 -61 15 -61 10 0 15 10 15 26
l0 27 90 -7 c86 -6 90 -6 90 14 0 11 -7 20 -15 20 -10 0 -15 10 -15 30 0 23
-4 30 -20 30 -18 0 -20 7 -20 54 0 53 0 53 86 145 47 50 84 91 82 91 -2 0 -72
-69 -156 -154z"/>
<path d="M15030 21545 c0 -82 9 -95 69 -95 l31 0 0 85 0 85 -50 0 -50 0 0 -75z"/>
<path d="M15287 21613 c-9 -8 -9 -126 -1 -147 4 -11 19 -16 45 -16 39 0 39 0
39 -40 0 -33 4 -42 22 -49 15 -5 27 -2 40 11 13 13 33 18 73 18 30 0 55 5 55
10 0 6 -22 10 -50 10 -71 0 -90 21 -90 101 0 94 5 99 104 99 91 0 96 -3 96
-61 0 -16 3 -29 6 -29 13 0 33 35 34 58 0 12 5 22 10 22 6 0 10 5 10 10 0 11
-382 14 -393 3z"/>
<path d="M15847 21593 c-4 -3 -7 -37 -7 -75 0 -61 -2 -68 -20 -68 -16 0 -20
-7 -20 -35 0 -19 5 -35 10 -35 6 0 19 -9 30 -20 19 -19 32 -20 193 -18 137 1
154 3 84 7 -79 5 -89 8 -111 34 -17 20 -32 27 -59 27 -25 0 -43 7 -57 23 -19
19 -21 32 -18 95 3 68 -4 87 -25 65z"/>
<path d="M18547 21513 c-4 -3 -7 -51 -7 -105 0 -109 -8 -128 -54 -128 -21 0
-26 -5 -26 -26 0 -34 -22 -54 -59 -54 l-31 0 0 -92 -1 -93 -101 -105 -101
-105 182 -3 181 -2 0 -35 0 -35 115 0 c96 0 115 3 115 15 0 10 -10 15 -34 15
-49 0 -66 28 -66 108 0 98 4 102 110 102 49 0 92 -4 95 -10 3 -5 28 -10 54
-10 32 0 53 -5 62 -16 12 -14 14 -14 26 2 10 14 30 19 83 22 58 4 75 1 104
-17 29 -18 47 -21 103 -19 l68 3 3 123 3 122 -138 0 c-178 0 -183 -2 -183 -51
l0 -39 -69 0 c-39 0 -73 5 -76 10 -3 6 -21 10 -40 10 -19 0 -36 4 -39 9 -8 12
-55 20 -62 10 -9 -14 -147 -10 -166 5 -15 11 -18 29 -18 99 0 47 5 89 10 92 6
3 10 30 10 60 0 56 8 65 56 65 21 0 24 4 24 40 l0 40 -63 0 c-35 0 -67 -3 -70
-7z"/>
<path d="M12390 21351 c0 -23 5 -41 10 -41 6 0 10 -30 10 -70 0 -48 -4 -70
-12 -70 -9 0 -9 -3 0 -12 7 -7 12 -40 12 -78 0 -36 5 -71 11 -77 5 -5 13 -36
16 -67 3 -31 10 -59 14 -62 5 -3 9 -29 9 -59 0 -30 5 -57 10 -60 6 -3 10 -30
10 -60 0 -30 5 -57 10 -60 6 -3 10 -26 10 -50 0 -24 5 -47 10 -50 6 -3 10 -24
10 -45 0 -21 5 -42 10 -45 7 -4 10 119 10 360 l0 367 67 69 66 69 -126 0 -126
0 -3 37 c-4 52 -28 56 -28 4z"/>
<path d="M20690 21141 c0 -65 2 -70 23 -73 21 -3 22 -6 22 -121 0 -114 1 -117
22 -117 22 0 22 -4 25 -112 l3 -113 28 -3 c27 -3 27 -4 27 -73 0 -62 2 -69 20
-69 17 0 20 -7 20 -40 0 -29 4 -40 15 -40 12 0 15 -14 15 -65 0 -37 4 -65 10
-65 6 0 10 18 10 40 0 34 3 40 21 40 17 0 20 4 15 23 -3 12 -6 153 -6 312 l0
290 -24 28 c-13 15 -33 27 -45 27 -16 0 -21 6 -21 24 0 44 -10 56 -46 56 -30
0 -34 3 -34 25 0 20 -5 25 -25 25 -22 0 -25 4 -25 35 0 31 -3 35 -25 35 -24 0
-25 -2 -25 -69z"/>
<path d="M21130 21126 l0 -75 28 15 c15 8 55 14 95 14 65 0 67 1 67 25 0 13
-8 40 -17 59 l-18 36 -77 0 -78 0 0 -74z"/>
<path d="M19200 20765 l-24 -26 89 -89 c49 -49 93 -86 98 -81 4 4 6 55 5 112
l-3 104 -70 3 c-65 3 -73 1 -95 -23z"/>
<path d="M21130 20607 l0 -123 55 -52 55 -53 0 -447 0 -448 -75 -74 -75 -74 0
-78 0 -78 115 0 115 0 0 65 c0 51 -3 65 -15 65 -13 0 -15 22 -15 134 0 99 3
135 13 138 9 4 13 105 15 450 4 454 1 488 -33 488 -8 0 -15 8 -15 18 0 22 -40
72 -58 72 -7 0 -12 10 -12 23 0 13 -16 40 -35 60 l-35 37 0 -123z"/>
<path d="M10070 20660 l0 -60 113 0 113 0 44 45 c40 41 48 45 92 45 50 0 64
13 26 24 -13 3 -105 6 -205 6 l-183 0 0 -60z"/>
<path d="M18237 20600 c5 -70 4 -80 -11 -80 -11 0 -16 -9 -16 -30 l0 -30 85 0
85 0 0 40 c0 22 5 40 10 40 6 0 10 16 10 35 0 19 -4 35 -10 35 -5 0 -10 16
-10 35 l0 35 -75 0 -74 0 6 -80z"/>
<path d="M10695 20270 c-127 -127 -129 -130 -97 -130 18 0 46 9 61 21 27 20
36 21 135 14 l106 -7 0 -54 0 -54 -59 0 c-33 0 -63 -4 -66 -10 -4 -6 43 -10
134 -10 l141 0 0 85 c0 80 -2 87 -29 115 -19 21 -38 30 -59 30 -26 0 -31 4
-34 28 -2 16 -12 31 -25 37 -16 7 -23 18 -23 37 0 24 -4 28 -28 28 -22 0 -53
-26 -157 -130z"/>
<path d="M18581 20309 c21 -21 21 -29 18 -187 l-4 -166 35 -9 c58 -15 237 -2
307 23 l62 22 -172 168 -172 169 -47 1 -48 0 21 -21z"/>
<path d="M9940 20067 c0 -29 -5 -58 -12 -65 -7 -7 -32 -12 -57 -13 -26 -1 -57
-5 -71 -9 l-25 -8 25 -1 c48 -3 60 -22 60 -99 0 -62 -3 -73 -22 -86 -13 -9
-43 -16 -71 -16 -30 0 -46 -4 -42 -10 3 -5 25 -10 48 -10 41 1 48 6 232 185
l190 184 -127 1 -128 0 0 -53z"/>
<path d="M12131 19973 c0 -7 -8 -13 -17 -13 -26 0 -44 -26 -44 -63 l0 -35 -70
-7 c-39 -4 -73 -11 -76 -16 -3 -5 -14 -9 -25 -9 -10 0 -19 -3 -19 -8 0 -4 -15
-14 -32 -22 l-33 -15 40 -3 c53 -4 65 -22 65 -103 0 -82 -6 -99 -34 -100 -16
-1 -17 -2 -3 -6 13 -3 17 -15 17 -54 0 -49 -15 -79 -39 -79 -6 0 -11 -7 -11
-15 0 -11 -12 -15 -50 -15 l-50 0 0 -165 0 -165 40 0 40 0 0 -45 c0 -45 0 -45
35 -45 30 0 35 3 35 24 0 14 11 38 25 54 22 26 24 33 14 61 -18 51 -6 141 21
163 41 33 136 23 190 -19 10 -8 59 -13 125 -15 l110 -3 3 -57 3 -58 -40 0
c-31 0 -44 -5 -55 -22 -15 -25 -28 -178 -14 -178 4 0 8 -20 8 -45 0 -43 2 -45
28 -45 15 0 38 -7 50 -16 20 -13 22 -24 22 -93 0 -97 -6 -103 -109 -111 l-76
-6 78 -5 c99 -6 107 -15 107 -116 0 -52 4 -73 13 -73 9 0 11 19 9 70 -3 54 0
77 13 97 17 25 19 26 102 20 55 -3 88 -10 94 -18 6 -11 12 -9 28 5 17 15 33
18 99 15 106 -5 112 -11 112 -114 0 -57 -4 -85 -12 -88 -7 -3 -4 -6 7 -6 19
-1 20 4 17 92 -3 90 -3 93 22 106 30 17 158 10 181 -9 10 -8 15 -30 15 -66 l0
-54 39 0 c22 0 43 5 46 10 3 6 19 10 35 10 16 0 32 5 35 10 3 6 17 10 30 10
25 0 54 19 84 54 9 10 26 29 39 42 28 29 28 34 0 34 -12 0 -37 14 -55 32 l-33
32 0 -26 c0 -39 -24 -51 -111 -56 -64 -4 -83 -1 -97 12 -14 12 -21 13 -30 4
-6 -6 -45 -13 -87 -16 -105 -7 -115 3 -115 113 0 44 5 86 11 92 6 6 10 63 11
144 0 90 4 136 12 141 6 4 -11 8 -37 8 -40 0 -50 4 -54 20 -3 11 -11 20 -17
20 -28 0 -56 49 -56 100 l0 50 50 0 c51 0 100 -28 100 -57 0 -15 70 -17 135
-4 38 8 37 9 -22 10 l-63 1 0 54 c0 45 -3 56 -19 61 -10 3 -22 16 -25 28 -3
12 -28 53 -56 92 -72 97 -145 265 -174 398 l-6 27 -260 0 -259 0 -4 28 c-2 15
-5 21 -6 15z m242 -222 c13 -13 17 -175 4 -187 -4 -4 -43 -9 -87 -12 -63 -4
-85 -1 -105 12 -25 16 -26 21 -23 99 3 75 5 82 28 95 30 16 165 11 183 -7z
m303 -6 c21 -28 19 -159 -2 -176 -26 -22 -159 -25 -189 -5 -23 15 -25 22 -25
96 0 104 11 113 124 107 62 -3 82 -8 92 -22z m-541 -225 c25 -6 44 -5 49 0 11
11 117 13 165 4 l31 -6 0 -93 0 -92 -39 -13 c-46 -15 -149 -9 -161 9 -6 10
-12 10 -28 2 -33 -18 -177 -14 -196 5 -23 22 -22 150 1 176 18 20 107 25 178
8z m546 -11 c15 -24 11 -156 -6 -173 -34 -33 -175 -33 -200 1 -9 11 -14 44
-15 87 0 101 10 109 123 104 63 -3 91 -8 98 -19z m-58 -677 c11 -10 17 -9 27
3 15 19 146 21 185 3 24 -11 25 -15 25 -93 0 -63 -4 -86 -16 -96 -9 -7 -51
-15 -98 -17 -77 -4 -84 -3 -99 18 -14 20 -16 20 -25 4 -8 -14 -27 -18 -94 -22
-80 -4 -86 -3 -102 19 -11 16 -16 44 -16 89 0 45 5 73 16 89 16 22 22 23 100
19 45 -2 89 -10 97 -16z"/>
<path d="M9311 19846 c-57 -58 -62 -66 -45 -73 10 -4 28 -15 38 -25 23 -21 35
-15 101 51 l49 51 -36 0 c-34 0 -37 3 -40 30 l-3 31 -64 -65z"/>
<path d="M10097 19732 c-141 -141 -165 -172 -132 -172 8 0 15 -7 15 -15 0 -22
11 -18 47 15 18 17 39 30 47 30 9 0 16 7 16 16 0 29 27 44 79 44 l51 0 0 -51
c0 -52 -15 -79 -44 -79 -9 0 -16 -8 -16 -19 0 -11 -6 -22 -12 -24 -8 -4 -7 -6
4 -6 23 -1 48 9 48 21 0 13 125 138 139 138 6 0 11 4 11 9 0 4 15 25 34 45
l35 36 153 2 c84 1 136 3 116 5 l-38 4 0 55 0 54 -130 0 c-123 0 -130 1 -130
20 0 18 -7 20 -73 20 l-72 0 -148 -148z"/>
<path d="M10840 19752 l0 -31 83 -3 82 -3 3 -52 c3 -45 6 -53 23 -53 17 0 19
7 19 70 0 56 3 70 15 70 8 0 15 5 15 10 0 6 -24 10 -52 10 -29 0 -83 3 -120 7
l-68 6 0 -31z"/>
<path d="M20796 19745 c-8 -8 -17 -15 -20 -15 -3 0 -19 -13 -34 -30 -20 -21
-39 -30 -61 -30 -27 0 -31 -3 -31 -26 0 -29 -44 -74 -72 -74 -9 0 -20 -4 -23
-10 -3 -5 -1 -10 4 -10 6 0 11 -9 11 -19 0 -14 5 -18 20 -14 11 3 20 9 20 14
0 5 25 9 55 9 30 0 55 -4 55 -10 0 -5 14 -10 30 -10 17 0 30 -4 30 -10 0 -5 9
-10 21 -10 19 0 21 -5 17 -59 -3 -57 -2 -60 23 -65 27 -5 49 -41 49 -81 0 -13
5 -27 10 -30 6 -4 10 29 10 92 l0 99 75 74 c66 66 74 79 75 113 0 35 -2 37
-30 37 -16 0 -30 5 -30 10 0 6 -11 10 -25 10 -20 0 -25 5 -26 28 0 15 -3 21
-6 15 -7 -20 -113 -17 -113 2 0 8 -4 15 -9 15 -5 0 -16 -7 -25 -15z"/>
<path d="M10404 19491 c-55 -55 -87 -94 -81 -100 5 -5 45 -7 88 -4 l79 6 0
-27 c0 -25 3 -26 50 -26 43 0 50 -3 50 -20 0 -16 7 -20 36 -20 19 0 42 -7 50
-15 9 -9 34 -15 59 -15 49 0 65 16 65 68 0 28 2 29 55 35 30 3 59 8 65 12 5 3
10 26 10 50 0 37 3 44 23 48 12 2 -85 5 -215 6 l-237 1 -3 46 -3 46 -91 -91z"/>
<path d="M16474 19560 c49 -15 66 -38 66 -92 l0 -48 130 0 c144 0 131 -5 221
82 27 26 49 51 49 57 0 8 -79 11 -247 10 -155 0 -237 -4 -219 -9z"/>
<path d="M8838 19495 c2 -14 8 -25 13 -25 5 0 9 -9 9 -20 0 -19 6 -22 75 -34
17 -3 45 -8 63 -12 25 -5 32 -3 32 9 0 8 15 28 33 44 73 65 76 63 -85 63
l-145 0 5 -25z"/>
<path d="M17092 19385 c-56 -58 -72 -82 -72 -104 0 -17 -4 -33 -10 -36 -5 -3
-10 -15 -10 -26 0 -10 -4 -19 -10 -19 -5 0 -10 -7 -10 -15 0 -9 -9 -25 -20
-37 -11 -12 -20 -32 -20 -44 0 -13 -7 -24 -17 -27 -10 -3 0 -5 23 -6 22 0 45
-6 52 -13 7 -7 12 -42 12 -85 0 -40 2 -73 5 -73 2 0 52 47 111 105 l106 105
79 0 79 0 0 54 c0 51 2 55 26 58 23 3 18 8 -44 54 l-70 51 -68 -68 -68 -69
-58 0 -58 0 0 51 c0 49 1 51 73 119 66 63 71 70 56 85 -14 15 -22 10 -87 -60z"/>
<path d="M11480 19385 c0 -8 5 -15 10 -15 6 0 10 -25 10 -55 0 -30 -4 -55 -10
-55 -6 0 -10 -29 -10 -68 0 -56 -4 -72 -20 -87 -18 -16 -18 -20 -6 -34 8 -9
16 -37 18 -63 l3 -48 64 63 64 62 -52 3 -51 3 0 43 c0 24 3 71 6 105 l7 61 58
0 c46 0 59 3 59 15 0 11 -12 15 -50 15 l-50 0 0 35 c0 31 -3 35 -25 35 -16 0
-25 -6 -25 -15z"/>
<path d="M9163 19313 c-7 -3 -13 -13 -13 -24 0 -17 -8 -19 -89 -19 l-89 0 21
-40 c22 -40 22 -40 83 -40 56 0 65 3 98 33 39 36 44 47 22 47 -8 0 -16 11 -18
23 -2 14 -8 22 -15 20z"/>
<path d="M11229 19115 c-66 -64 -66 -65 -37 -65 l30 0 -4 -65 c-3 -65 -3 -65
23 -65 26 0 27 2 34 80 4 44 12 84 19 88 7 4 9 23 6 49 l-5 42 -66 -64z"/>
<path d="M19485 18999 c-52 -17 -296 -56 -392 -64 -82 -6 -93 -9 -93 -26 0
-11 5 -28 12 -38 12 -19 12 -19 23 2 9 20 20 22 100 25 108 3 115 -2 115 -96
0 -81 -9 -98 -60 -106 -34 -5 -40 -10 -40 -31 0 -23 3 -25 50 -25 l50 0 0 -55
0 -55 55 0 c42 0 55 3 55 15 0 10 12 15 38 17 36 1 36 1 5 5 -33 4 -33 5 -33
59 l0 54 43 0 c23 0 49 5 57 10 10 7 -6 10 -55 10 -42 0 -76 5 -83 12 -7 7
-12 41 -12 85 0 61 3 75 22 93 40 37 154 22 177 -25 7 -15 10 2 10 63 1 45 -2
82 -6 81 -5 0 -21 -5 -38 -10z"/>
<path d="M14719 18923 c-85 -4 -89 -7 -89 -84 0 -64 11 -99 31 -99 11 0 19 3
19 8 0 8 49 32 67 32 7 0 13 5 13 10 0 6 9 10 19 10 21 0 31 19 31 56 0 14 7
27 18 31 18 7 42 28 42 37 0 3 -17 5 -37 4 -21 -1 -72 -4 -114 -5z"/>
<path d="M18365 18880 c66 -4 148 -8 183 -9 l62 -1 0 -54 0 -54 -317 -5 c-392
-7 -508 -24 -170 -26 l227 -1 0 -45 0 -45 44 0 45 0 3 43 3 42 163 3 162 2 0
75 0 74 33 4 c17 2 -101 4 -263 4 -219 0 -264 -2 -175 -7z"/>
<path d="M10330 18728 c-125 -126 -148 -158 -115 -158 8 0 15 -4 15 -10 0 -5
14 -10 30 -10 25 0 30 -4 30 -25 0 -21 5 -25 28 -25 21 0 46 19 112 85 55 55
92 85 106 85 20 0 23 6 26 60 1 33 0 60 -4 60 -5 0 -8 7 -8 15 0 10 -11 15
-35 15 -28 0 -35 4 -35 20 0 11 -4 20 -10 20 -5 0 -68 -59 -140 -132z"/>
<path d="M19918 18823 c-38 -39 -38 -39 -38 -123 l0 -83 60 61 c65 66 76 101
41 131 -10 9 -20 24 -22 34 -3 15 -10 12 -41 -20z"/>
<path d="M15154 18785 c-4 -8 -12 -15 -20 -15 -9 0 -14 -18 -16 -57 l-3 -58
-103 3 c-101 3 -162 -9 -162 -32 0 -5 64 -6 156 -2 l156 6 -4 -80 -3 -80 92 0
c93 0 93 0 93 25 0 14 5 25 10 25 6 0 10 9 10 19 0 11 -4 23 -10 26 -5 3 -10
22 -10 41 l0 34 -60 0 c-57 0 -60 1 -60 25 0 16 -6 25 -15 25 -12 0 -15 13
-15 55 0 43 -3 55 -15 55 -9 0 -18 -7 -21 -15z"/>
<path d="M21565 18610 c-3 -5 -15 -10 -26 -10 -10 0 -19 -4 -19 -10 0 -6 -28
-10 -65 -10 -37 0 -65 -4 -65 -10 0 -5 -7 -10 -15 -10 -11 0 -15 -11 -15 -39
0 -22 -5 -52 -10 -66 l-10 -27 74 4 c74 3 74 3 129 56 31 28 65 52 75 52 18 0
32 32 32 71 0 12 -77 11 -85 -1z"/>
<path d="M18490 18607 c0 -2 88 -93 195 -202 l195 -198 0 77 c0 77 0 78 30 89
27 10 30 16 30 54 l0 43 -45 0 c-42 0 -49 4 -112 67 l-68 68 -112 3 c-62 2
-113 2 -113 -1z"/>
<path d="M16820 18583 l75 -4 78 -77 77 -77 0 71 c0 41 5 75 12 82 9 9 -25 12
-152 10 -91 -1 -131 -4 -90 -5z"/>
<path d="M13980 18441 c0 -20 9 -36 25 -49 23 -18 28 -19 53 -6 35 18 132 18
158 0 17 -13 21 -12 41 6 16 15 40 23 77 26 67 5 100 -2 126 -28 20 -20 20
-20 40 0 16 16 33 20 95 20 66 0 79 -3 99 -23 22 -22 24 -23 35 -5 9 15 25 18
99 18 48 0 93 -5 98 -10 7 -7 20 -6 40 5 16 8 41 15 55 15 15 0 36 11 50 26
l24 26 -362 -4 c-200 -2 -363 0 -363 4 0 12 -58 10 -65 -2 -3 -5 -37 -10 -76
-10 -39 0 -69 4 -69 10 0 6 -37 10 -90 10 l-90 0 0 -29z"/>
<path d="M19785 18406 c-11 -12 -44 -47 -72 -78 l-53 -57 0 -75 0 -76 56 0
c30 0 64 -5 75 -10 18 -10 19 -6 19 155 0 91 -1 165 -2 164 -2 0 -12 -10 -23
-23z"/>
<path d="M19085 18390 c-4 -17 -2 -36 3 -43 5 -7 12 -24 16 -39 10 -44 36 -34
117 42 l74 69 -102 1 -101 0 -7 -30z"/>
<path d="M19487 18388 c-15 -18 -27 -39 -27 -46 0 -17 -46 -62 -63 -62 -18 0
-87 -75 -87 -95 0 -8 -8 -15 -19 -15 -10 0 -23 -6 -29 -13 -9 -10 22 -46 133
-157 l145 -145 0 260 c0 220 2 264 16 283 15 21 14 22 -13 22 -20 0 -37 -10
-56 -32z"/>
<path d="M10900 18386 c0 -12 10 -16 38 -16 51 0 62 -14 62 -82 l0 -58 40 0
40 0 0 -54 c0 -34 -5 -57 -12 -60 -10 -5 -10 -7 0 -12 7 -3 12 -26 12 -60 l0
-54 -85 0 -85 0 0 -29 c0 -17 5 -33 10 -36 6 -3 10 -22 10 -41 0 -19 4 -34 9
-34 6 0 11 -14 13 -32 l3 -32 83 79 c45 43 78 81 73 84 -6 4 -13 48 -17 99
l-7 92 52 0 c44 0 51 3 51 19 0 16 -8 20 -42 23 l-43 3 -3 93 -3 92 46 0 c25
0 45 5 45 10 0 6 -50 10 -129 10 -71 0 -136 3 -145 6 -11 4 -16 1 -16 -10z"/>
<path d="M16912 18156 c181 -181 193 -192 200 -168 4 14 13 29 20 33 18 12
148 11 148 0 0 -6 31 -7 73 -4 61 5 79 2 114 -16 36 -18 60 -21 156 -21 63 0
175 -3 250 -7 l137 -6 0 -39 c0 -21 5 -38 10 -38 6 0 10 17 10 39 0 37 2 39
38 45 20 3 70 6 109 6 69 0 73 1 79 25 5 18 15 28 36 32 l29 6 -21 21 c-11 12
-20 32 -20 45 0 21 -1 21 -22 7 -20 -14 -95 -16 -613 -16 l-590 0 -125 125
c-121 120 -126 125 -168 125 l-43 0 193 -194z"/>
<path d="M13070 18310 c0 -5 -18 -10 -39 -10 -22 0 -43 -4 -46 -10 -3 -5 -21
-10 -39 -10 -34 0 -86 -20 -86 -32 0 -5 -25 -8 -55 -8 -30 0 -55 5 -55 10 0 6
-20 10 -45 10 -25 0 -45 -4 -45 -10 0 -14 -123 -13 -138 2 -9 9 -15 9 -24 0
-7 -7 -25 -12 -42 -12 l-29 0 21 -19 c17 -14 22 -30 22 -70 l0 -51 -35 0 c-32
0 -35 -3 -35 -28 0 -16 9 -37 20 -47 15 -14 20 -31 20 -72 0 -46 -2 -53 -20
-53 -18 0 -20 -7 -20 -82 0 -61 -4 -86 -16 -100 -16 -16 -16 -18 0 -24 13 -5
16 -22 16 -100 0 -83 -2 -94 -20 -104 -19 -10 -20 -21 -20 -185 0 -95 3 -180
6 -189 4 -11 19 -16 44 -16 32 0 39 -4 43 -22 2 -13 5 189 6 448 l1 472 37 28
c20 16 46 39 59 52 13 12 28 22 34 22 5 0 10 5 10 10 0 6 12 10 28 10 16 0 32
8 40 20 10 17 23 20 86 20 67 0 77 -3 93 -24 l19 -24 21 24 c19 21 30 24 95
24 80 0 96 -11 109 -75 6 -30 6 -30 8 6 2 55 24 69 114 69 42 0 77 4 77 8 0 5
-35 7 -79 4 -70 -4 -81 -2 -100 17 -16 16 -21 33 -21 76 0 30 -4 55 -10 55 -5
0 -10 -4 -10 -10z"/>
<path d="M18420 18254 c0 -22 -5 -45 -10 -50 -16 -16 259 -291 285 -286 25 5
56 40 48 55 -4 7 -78 82 -165 167 l-158 154 0 -40z"/>
<path d="M21482 18072 c-17 -11 -31 -412 -14 -412 7 0 12 9 12 20 0 12 7 20
16 20 19 0 34 14 68 68 14 23 31 42 36 42 6 0 10 9 10 20 0 11 5 20 10 20 6 0
10 9 10 20 0 11 3 20 8 20 4 0 15 17 25 38 28 60 61 116 72 124 5 4 7 9 5 11
-10 9 -245 17 -258 9z"/>
<path d="M21933 18065 c-7 -8 -13 -20 -13 -27 0 -8 -9 -20 -20 -28 -25 -18
-50 -65 -50 -93 0 -11 -8 -27 -18 -36 -9 -9 -24 -29 -32 -46 -8 -16 -25 -44
-37 -61 -13 -17 -23 -34 -23 -38 0 -4 -9 -16 -20 -28 -11 -12 -20 -34 -20 -50
0 -19 -5 -28 -16 -28 -18 0 -28 -10 -68 -62 -16 -21 -24 -38 -18 -38 6 0 25
-16 44 -36 18 -19 54 -57 81 -83 26 -26 47 -53 47 -59 0 -7 7 -12 15 -12 10 0
15 10 15 29 0 16 6 31 15 35 8 3 15 16 15 30 0 14 5 28 10 31 6 3 10 19 10 36
0 16 5 29 10 29 6 0 10 16 10 35 0 19 5 35 10 35 6 0 10 18 10 40 0 22 5 40
10 40 6 0 10 20 10 44 0 25 5 48 10 51 6 3 10 28 10 55 0 26 4 50 8 52 11 4
24 198 14 198 -4 -1 -13 -7 -19 -15z"/>
<path d="M19108 17977 c23 -23 42 -48 42 -55 0 -7 5 -12 10 -12 6 0 10 -25 10
-55 l0 -55 -40 0 c-38 0 -40 -2 -40 -30 0 -29 -1 -30 -51 -30 -48 0 -55 4
-111 55 l-60 54 -29 -29 c-16 -16 -29 -31 -29 -34 0 -3 48 -55 108 -115 59
-60 143 -146 187 -191 68 -70 82 -80 97 -71 10 6 28 11 40 11 26 1 58 22 58
39 0 7 19 11 50 11 l50 0 0 123 0 122 -153 153 c-84 83 -159 152 -167 152 -8
0 4 -18 28 -43z"/>
<path d="M19770 17910 c-8 -5 -34 -10 -57 -10 l-43 0 0 -50 0 -50 49 0 c28 0
53 -4 56 -10 3 -5 13 -10 21 -10 11 0 14 16 14 70 0 72 -7 82 -40 60z"/>
<path d="M18455 17839 c-4 -33 -4 -114 0 -180 7 -117 7 -121 -16 -142 -17 -16
-39 -22 -85 -25 -53 -4 -65 -1 -83 17 -12 12 -21 34 -21 49 0 21 -10 35 -40
58 -35 25 -40 34 -40 70 0 60 -28 81 -110 85 -121 6 -326 -2 -305 -11 11 -5
40 -9 64 -9 42 -1 47 -5 172 -130 97 -97 129 -135 129 -154 0 -25 2 -26 88
-31 146 -9 217 -17 227 -27 5 -5 21 -9 36 -9 15 0 31 -4 34 -10 3 -6 50 -10
105 -10 55 0 102 -4 105 -10 10 -16 250 -13 264 3 8 11 -46 69 -248 270 -143
141 -261 257 -264 257 -3 0 -8 -27 -12 -61z"/>
<path d="M17512 17747 c-14 -15 -22 -36 -22 -59 0 -25 -6 -40 -22 -50 l-22
-14 32 -34 c18 -18 32 -38 32 -45 0 -18 52 -43 57 -27 6 15 113 17 113 2 0 -5
9 -10 21 -10 11 0 29 -5 40 -10 13 -7 19 -7 19 0 0 5 12 10 27 10 l27 0 -21
21 c-19 19 -31 22 -108 20 -55 -2 -92 2 -101 10 -10 8 -14 35 -14 95 0 74 2
84 22 98 22 16 21 16 -18 16 -29 0 -46 -6 -62 -23z"/>
<path d="M11930 17577 c0 -92 -8 -107 -55 -107 -41 0 -98 -57 -93 -91 3 -21 9
-24 47 -27 24 -2 49 2 54 7 6 6 35 11 64 11 l53 0 0 -53 c0 -41 -5 -58 -20
-72 -11 -10 -20 -29 -20 -42 0 -18 5 -23 25 -23 23 0 25 4 25 43 0 23 3 93 7
155 l6 112 -24 0 c-40 0 -49 18 -49 97 0 42 -4 73 -10 73 -6 0 -10 -34 -10
-83z"/>
<path d="M15820 17445 c0 -51 3 -57 45 -100 25 -25 51 -45 58 -45 9 0 11 24 9
90 -3 70 -7 90 -18 90 -8 0 -14 5 -14 10 0 6 -18 10 -40 10 l-40 0 0 -55z"/>
<path d="M13620 17337 l0 -154 30 5 c17 2 33 8 36 13 3 5 21 9 40 9 l34 0 0
76 0 76 -62 64 c-33 35 -65 64 -70 64 -4 0 -8 -69 -8 -153z"/>
<path d="M16845 17316 c58 -58 65 -68 65 -104 0 -23 6 -45 15 -52 8 -7 15 -23
15 -36 0 -18 6 -24 20 -24 24 0 70 -42 70 -65 0 -8 9 -15 20 -15 13 0 20 7 20
20 0 11 -4 20 -10 20 -5 0 -10 25 -10 55 l0 55 55 0 c30 0 55 -4 55 -10 0 -5
4 -10 10 -10 5 0 110 -99 232 -220 136 -134 224 -214 226 -205 3 11 18 15 55
15 51 -1 53 -2 127 -75 70 -70 100 -89 100 -65 0 6 15 10 33 10 30 1 20 13
-217 245 l-249 245 -49 0 c-36 0 -48 4 -48 15 0 8 -5 15 -11 15 -16 0 -39 26
-39 44 0 9 -7 16 -16 16 -27 0 -114 94 -114 124 0 14 -4 26 -10 26 -5 0 -10
-18 -10 -40 0 -22 -4 -40 -10 -40 -5 0 -10 -11 -10 -25 0 -24 -3 -25 -55 -25
-30 0 -55 5 -55 10 0 6 -18 10 -40 10 -22 0 -40 5 -40 10 0 6 -7 10 -15 10
-11 0 -15 12 -15 45 l0 45 -40 0 c-22 0 -40 5 -40 10 0 6 -7 10 -15 10 -8 0
-15 5 -15 10 0 6 -11 10 -25 10 -24 0 -20 -6 40 -64z"/>
<path d="M11530 17359 c0 -6 -35 -47 -77 -90 -84 -87 -84 -87 -10 -121 15 -7
27 -16 27 -20 0 -5 26 -8 58 -8 46 0 60 -4 70 -20 7 -11 19 -20 27 -20 12 0
15 19 15 105 0 87 -3 105 -15 105 -8 0 -15 9 -15 20 0 16 -7 20 -30 20 -23 0
-30 4 -30 20 0 11 -4 20 -10 20 -5 0 -10 -5 -10 -11z"/>
<path d="M17730 17344 c0 -3 45 -50 100 -104 98 -96 100 -100 100 -144 l0 -46
70 0 c63 0 70 2 70 20 0 11 7 20 15 20 9 0 15 9 15 24 0 22 5 25 42 28 l41 3
-71 69 c-40 38 -72 76 -72 83 0 9 -14 13 -45 13 -25 0 -45 5 -45 10 0 6 -15
10 -34 10 -19 0 -38 5 -41 10 -6 10 -145 14 -145 4z"/>
<path d="M16491 17323 c8 -10 42 -45 77 -78 59 -58 62 -63 62 -108 l0 -47 50
0 c28 0 50 -4 50 -10 0 -5 5 -10 10 -10 6 0 10 13 10 29 0 23 -20 48 -110 135
-83 80 -117 106 -136 106 -24 0 -25 -2 -13 -17z"/>
<path d="M19365 17300 c-3 -5 -22 -10 -41 -10 -19 0 -34 -4 -34 -10 0 -5 -6
-10 -14 -10 -16 0 -26 -30 -26 -77 l0 -33 -55 0 -55 0 -1 43 c0 23 -3 36 -6
30 -3 -9 -29 -13 -79 -13 -67 0 -74 -2 -74 -19 0 -11 -9 -26 -20 -34 -18 -13
-13 -15 62 -20 67 -4 86 -9 99 -26 14 -17 29 -21 73 -21 l56 0 0 -70 c0 -69 0
-70 45 -114 25 -25 45 -48 45 -51 0 -4 6 -13 14 -21 8 -8 17 -14 21 -14 9 0
92 -85 98 -101 3 -8 6 9 6 36 1 48 -2 54 -59 117 -57 63 -60 69 -60 117 0 46
2 51 23 51 22 0 22 2 19 107 -1 60 -5 118 -7 131 -6 23 -20 29 -30 12z"/>
<path d="M18356 17258 c92 -98 310 -318 317 -318 11 0 8 58 -3 65 -5 3 -10 15
-10 26 0 10 -4 19 -9 19 -5 0 -11 9 -14 20 -3 12 -14 20 -26 20 -15 0 -21 6
-21 21 0 24 -22 49 -44 49 -9 0 -16 8 -16 20 0 11 -7 20 -15 20 -8 0 -15 5
-15 10 0 6 -9 10 -20 10 -11 0 -20 5 -20 10 0 6 -9 10 -19 10 -10 0 -21 7 -25
15 -3 9 -18 15 -36 15 -16 0 -30 5 -30 10 0 6 -5 10 -12 10 -6 0 1 -14 18 -32z"/>
<path d="M14190 16995 l0 -265 30 -32 29 -33 1 298 0 297 -30 0 -30 0 0 -265z"/>
<path d="M14477 17213 c-4 -3 -7 -96 -7 -205 l0 -198 30 0 30 0 0 205 0 205
-23 0 c-13 0 -27 -3 -30 -7z"/>
<path d="M14650 16988 c1 -166 4 -219 15 -238 14 -24 14 -24 15 -3 0 12 -4 25
-10 28 -5 3 -10 33 -10 66 l0 59 49 0 c43 0 53 -4 90 -40 25 -24 41 -49 41
-63 0 -13 9 -32 20 -42 11 -10 20 -29 20 -42 0 -20 5 -23 35 -23 19 0 35 5 35
10 0 14 107 13 112 -1 3 -8 34 -10 111 -4 l107 7 0 38 c0 22 -8 48 -20 63 -14
18 -20 40 -20 76 l0 51 53 0 c45 0 57 -5 86 -32 33 -31 34 -31 28 -8 -4 14 -7
28 -7 33 0 4 -7 7 -17 7 -9 0 -29 14 -45 32 -26 29 -28 30 -28 10 0 -20 -5
-22 -51 -22 -54 0 -79 15 -79 48 0 21 -37 31 -110 32 -30 0 -46 12 -112 75
l-77 75 -95 0 c-52 0 -98 4 -101 10 -3 6 -13 10 -21 10 -12 0 -14 -34 -14
-212z"/>
<path d="M21470 17016 l0 -123 31 -7 c34 -7 53 8 65 51 3 12 15 25 25 28 10 4
19 15 19 26 0 10 5 19 12 19 7 0 -17 29 -52 65 -95 95 -100 92 -100 -59z"/>
<path d="M20890 17048 c0 -65 -10 -77 -71 -85 l-41 -6 138 -138 c76 -77 142
-139 146 -139 5 0 8 18 8 40 0 24 -5 40 -12 40 -7 0 -25 12 -40 27 -27 26 -28
31 -28 123 l0 96 -50 49 -50 49 0 -56z"/>
<path d="M16360 17050 l0 -30 -144 0 -144 0 99 -98 c99 -97 99 -98 99 -147 0
-28 7 -59 15 -69 14 -18 15 -12 15 61 0 81 0 81 30 95 23 10 30 19 30 40 0 27
2 28 55 28 42 0 60 -5 75 -20 14 -14 33 -20 65 -20 l45 0 0 -55 c0 -48 -2 -55
-20 -55 -16 0 -20 -7 -20 -35 l0 -35 50 0 c47 0 50 2 50 25 0 24 3 25 55 25
32 0 55 -4 55 -11 0 -22 28 -36 80 -42 30 -3 66 -9 80 -13 24 -6 23 -5 -9 30
-25 26 -44 36 -65 36 -56 1 -66 18 -66 109 0 71 2 83 19 89 19 7 18 8 -4 35
-13 15 -27 27 -30 27 -3 0 -5 -18 -5 -40 l0 -40 -53 0 c-69 0 -97 28 -97 95
l0 45 -40 0 c-22 0 -40 -4 -40 -10 0 -5 -11 -10 -25 -10 -23 0 -25 -4 -25 -45
l0 -45 -55 0 -55 0 0 55 c0 30 -4 55 -10 55 -5 0 -10 -13 -10 -30z"/>
<path d="M13715 17060 c-3 -5 -26 -10 -51 -10 l-44 0 0 -240 0 -240 37 0 c20
0 52 -5 70 -12 29 -11 33 -16 33 -50 0 -36 2 -38 30 -38 23 0 30 4 30 20 0 12
-13 34 -30 50 l-30 29 0 130 0 130 43 4 42 4 -42 1 -43 2 0 93 c0 50 -3 102
-6 115 -7 23 -28 30 -39 12z"/>
<path d="M15790 16995 c0 -20 -5 -25 -25 -25 -21 0 -25 -5 -25 -30 0 -27 -3
-30 -34 -30 -36 0 -46 -12 -46 -56 0 -13 6 -24 13 -24 7 0 33 -20 57 -45 35
-35 51 -45 77 -45 30 0 33 3 33 28 0 41 28 62 83 62 l47 0 0 40 c0 29 -4 40
-15 40 -12 0 -15 13 -15 55 l0 55 -75 0 c-73 0 -75 -1 -75 -25z"/>
<path d="M28650 15365 l0 -1485 365 0 365 0 0 720 0 720 1135 0 1135 0 0 -720
0 -720 375 0 375 0 0 1485 0 1485 -375 0 -375 0 0 -325 0 -325 -1135 0 -1135
0 0 325 0 325 -365 0 -365 0 0 -1485z"/>
<path d="M33100 15365 l0 -1485 375 0 375 0 0 1485 0 1485 -375 0 -375 0 0
-1485z"/>
<path d="M18158 16785 l-3 -40 -48 -3 -48 -3 70 -68 c46 -43 71 -75 71 -89 0
-18 6 -22 30 -22 l30 0 0 105 0 105 -25 0 c-16 0 -35 11 -50 28 l-23 27 -4
-40z"/>
<path d="M19180 16587 l0 -97 35 0 c19 0 35 -4 35 -10 0 -5 17 -10 38 -10 20
0 54 -5 75 -11 67 -18 68 -20 -86 131 l-97 95 0 -98z"/>
<path d="M19733 16477 c15 -12 27 -28 27 -35 0 -8 17 -12 48 -12 26 0 53 -5
60 -12 9 -9 12 -9 12 0 0 8 21 12 65 12 37 0 65 -4 65 -10 0 -5 16 -10 35 -10
19 0 35 4 35 8 0 5 -18 25 -41 45 l-41 37 -145 0 -146 0 26 -23z"/>
<path d="M17523 16379 c-7 -7 -13 -22 -13 -34 0 -43 23 -75 54 -75 16 0 45 -5
63 -12 l33 -12 0 -82 0 -81 -31 -7 c-17 -3 -51 -6 -75 -6 l-44 0 0 -88 0 -87
75 3 c81 5 73 11 88 -63 3 -11 5 10 6 48 l1 67 -35 0 -36 0 3 58 3 57 60 0 60
0 3 -57 3 -58 49 0 c26 0 55 -3 64 -6 13 -5 16 1 16 30 l0 36 -46 0 -46 0 4
70 4 70 -53 0 -52 0 -7 70 c-4 39 -13 75 -20 81 -8 6 -14 18 -14 25 0 9 -12
14 -35 14 -19 0 -35 5 -35 10 0 6 -6 10 -14 10 -8 0 -16 7 -18 16 -2 12 -5 13
-15 3z"/>
<path d="M18963 16321 c-3 -13 -15 -21 -35 -23 l-29 -3 -6 -177 c-3 -122 -2
-178 5 -178 6 0 14 5 17 10 3 6 31 10 61 10 l54 0 0 -84 c0 -47 -4 -96 -10
-110 -9 -24 -7 -26 15 -26 20 0 25 -5 25 -25 0 -25 0 -25 95 -25 l95 0 -39 35
c-21 19 -47 35 -58 35 -37 0 -53 31 -53 102 0 87 20 108 108 108 33 0 64 -4
67 -10 3 -5 35 -10 71 -10 36 0 64 4 64 10 0 6 25 10 55 10 30 0 55 -4 55 -10
0 -5 8 -19 18 -29 37 -41 42 -51 42 -81 0 -28 3 -30 34 -30 19 0 37 -6 39 -12
3 -7 6 17 6 55 1 64 2 67 25 67 14 0 28 5 31 10 3 6 23 10 44 10 21 0 66 3
100 6 50 6 61 10 61 25 0 11 -9 19 -22 21 -20 3 -24 10 -28 63 -7 84 -32 115
-92 115 -36 0 -51 6 -76 30 -18 17 -41 30 -53 30 -13 0 -23 8 -26 21 -4 12
-11 18 -20 15 -8 -3 -19 -6 -24 -6 -5 0 -9 -17 -9 -37 0 -20 -5 -52 -12 -70
-12 -32 -14 -33 -66 -33 -45 0 -55 3 -59 20 -3 11 -14 20 -24 20 -11 0 -29 10
-40 21 -18 18 -29 20 -73 15 -28 -4 -90 -9 -138 -13 l-88 -5 0 66 0 66 -30 0
c-16 0 -30 5 -30 10 0 19 -42 10 -47 -9z"/>
<path d="M16420 16265 c0 -24 -5 -35 -15 -35 -12 0 -15 -20 -15 -116 0 -130
-6 -144 -64 -144 l-36 0 0 -55 c0 -52 -1 -55 -25 -55 -23 0 -25 -4 -25 -45 0
-41 2 -45 25 -45 24 0 25 -2 25 -65 0 -61 -2 -66 -25 -75 -18 -7 -25 -17 -25
-35 0 -23 3 -25 50 -25 l50 0 0 -40 c0 -38 2 -40 30 -40 27 0 30 -3 30 -30 0
-27 3 -30 34 -30 19 0 36 -5 38 -11 3 -8 42 -14 106 -17 l102 -5 0 62 c0 69
-13 91 -54 91 -23 0 -26 4 -26 35 0 33 -2 35 -35 35 -34 0 -35 -1 -35 -40 l0
-40 -55 0 -55 0 0 55 c0 54 0 55 30 55 29 0 30 2 30 45 0 34 4 45 15 45 9 0
18 7 21 15 4 9 19 15 35 15 26 0 29 3 29 34 l0 35 -110 -6 -110 -6 0 67 c0 64
1 66 25 66 24 0 25 3 25 54 0 57 7 66 56 66 15 0 24 6 24 15 0 9 -9 15 -25 15
-24 0 -25 3 -25 55 0 40 4 55 14 55 11 0 11 8 3 40 -14 50 -37 53 -37 5z"/>
<path d="M17010 16210 c0 -20 -5 -30 -15 -30 -11 0 -15 -12 -15 -50 0 -27 5
-50 10 -50 6 0 10 -22 10 -50 0 -27 5 -50 10 -50 6 0 10 5 10 10 0 6 18 10 40
10 36 0 40 3 40 25 0 20 -5 25 -25 25 -32 0 -45 26 -45 89 0 48 2 51 25 51 20
0 25 5 25 25 0 22 -4 25 -35 25 -32 0 -35 -2 -35 -30z"/>
<path d="M16630 16180 c0 -5 11 -10 25 -10 24 0 25 -3 25 -54 l0 -54 -45 -6
c-41 -7 -45 -10 -45 -35 0 -34 23 -41 138 -41 l75 0 -7 38 c-3 20 -6 58 -6 85
0 45 -1 47 -27 47 -16 0 -48 9 -72 20 -49 22 -61 24 -61 10z"/>
<path d="M18370 16045 l0 -145 30 0 30 0 0 -70 c0 -67 -1 -70 -24 -70 -25 0
-36 -21 -36 -72 0 -26 3 -28 40 -28 29 0 40 -4 40 -15 0 -8 8 -15 18 -15 15 0
17 15 18 160 l2 160 -34 0 -34 0 0 55 0 55 36 0 c50 0 43 29 -11 44 -37 11
-40 15 -43 49 -2 24 -8 37 -18 37 -11 0 -14 -25 -14 -145z"/>
<path d="M15381 15937 l-1 -29 -65 4 c-47 2 -65 0 -65 -9 0 -7 -9 -13 -20 -13
-13 0 -20 -7 -20 -20 0 -12 -7 -20 -16 -20 -9 0 -14 -7 -12 -17 2 -13 18 -21
56 -27 41 -7 52 -13 52 -27 0 -14 7 -19 30 -19 28 0 30 -2 30 -40 0 -33 3 -40
20 -40 15 0 20 -7 20 -25 0 -22 4 -25 35 -25 31 0 35 -3 35 -25 0 -18 5 -25
20 -25 18 0 20 -7 20 -60 l0 -60 34 0 33 0 5 -82 c3 -49 10 -84 16 -86 7 -2
12 -8 12 -14 0 -6 11 -26 25 -44 14 -18 25 -37 25 -43 0 -6 4 -11 8 -11 5 0
12 62 15 138 l7 137 -27 22 c-25 20 -26 24 -20 102 3 46 1 81 -4 81 -5 0 -9
29 -9 65 0 37 -4 65 -10 65 -5 0 -10 14 -10 30 0 17 -4 30 -10 30 -5 0 -10 20
-10 44 0 42 -1 44 -37 49 -22 4 -39 2 -41 -3 -2 -6 -28 -10 -57 -10 -43 0 -54
4 -58 18 -3 10 -5 6 -6 -11z"/>
<path d="M18940 15495 c0 -8 9 -15 20 -15 11 0 20 5 20 10 0 6 42 10 105 10
63 0 105 -4 105 -10 0 -5 23 -10 50 -10 28 0 50 -4 50 -10 0 -5 20 -10 45 -10
25 0 45 -4 45 -10 0 -5 14 -10 30 -10 17 0 30 -4 30 -10 0 -5 9 -10 20 -10 18
0 20 -7 20 -55 l0 -55 -70 0 c-40 0 -70 4 -70 10 0 6 -9 10 -20 10 -11 0 -20
5 -20 10 0 6 -18 10 -40 10 -22 0 -40 5 -40 10 0 6 -20 10 -45 10 -25 0 -45 5
-45 10 0 6 -6 10 -14 10 -9 0 -12 -8 -8 -25 3 -17 11 -25 25 -25 15 0 67 -41
67 -54 0 -1 22 -26 49 -54 57 -57 132 -112 155 -112 10 0 16 -9 16 -22 0 -17
3 -19 12 -10 7 7 40 12 80 12 l68 0 0 30 c0 28 2 30 40 30 l40 0 0 95 c0 83
-3 97 -20 112 -11 10 -20 23 -20 30 0 7 -9 13 -20 13 -16 0 -20 7 -20 35 0 28
-4 35 -19 35 -11 0 -21 6 -23 13 -4 9 -75 13 -301 15 -262 3 -297 1 -297 -13z"/>
<path d="M17680 15452 c0 -28 -31 -72 -50 -72 -6 0 -10 -6 -10 -13 0 -7 -10
-21 -22 -31 -13 -11 -38 -32 -56 -48 l-33 -28 36 0 35 0 0 -55 0 -55 -55 0
c-51 0 -55 2 -55 24 0 34 -32 24 -76 -23 -32 -34 -33 -40 -34 -113 0 -77 0
-78 25 -78 18 0 25 5 25 19 0 10 5 33 11 50 11 32 12 33 68 28 45 -4 134 -23
149 -33 2 -1 8 -21 13 -44 10 -42 29 -70 48 -70 6 0 11 -11 11 -25 0 -18 5
-25 20 -25 18 0 20 -7 20 -60 0 -58 -1 -60 -27 -61 -24 -2 -25 -2 -5 -6 12 -2
22 -11 22 -19 0 -8 9 -14 20 -14 18 0 20 7 20 80 0 79 0 80 25 80 23 0 25 3
25 50 0 28 5 50 10 50 6 0 10 14 10 30 0 29 1 30 52 30 l52 0 -32 33 c-18 18
-32 38 -32 45 0 8 -19 12 -54 12 -40 0 -55 4 -60 16 -10 26 -7 124 4 124 6 0
10 28 10 65 l0 65 30 0 c20 0 30 5 30 15 0 8 5 15 10 15 6 0 10 5 10 10 0 6
-18 10 -40 10 -29 0 -40 4 -40 15 0 8 -9 15 -20 15 -11 0 -20 5 -20 10 0 6
-16 10 -35 10 -32 0 -35 -3 -35 -28z"/>
<path d="M16240 15350 l0 -80 54 0 c40 0 55 -4 60 -16 10 -26 7 -114 -4 -114
-5 0 -10 -13 -10 -30 0 -38 25 -40 35 -3 9 37 20 43 83 43 49 0 52 -1 52 -25
0 -19 5 -25 23 -24 12 0 16 3 10 6 -8 3 -13 24 -14 51 -1 48 -16 114 -18 80
-1 -10 -8 -18 -16 -18 -8 0 -15 -4 -15 -10 0 -5 -25 -10 -55 -10 l-55 0 0 43
c0 23 -3 59 -6 80 -6 34 -9 37 -40 37 -32 0 -34 2 -34 35 0 31 -3 35 -25 35
-25 0 -25 -1 -25 -80z"/>
<path d="M18383 15403 c9 -2 17 -9 17 -14 0 -24 46 -79 68 -79 20 0 22 -5 22
-53 0 -41 -4 -55 -20 -65 -21 -13 -28 -42 -10 -42 6 0 10 -6 10 -13 0 -10 31
-16 118 -24 64 -5 119 -8 121 -6 2 1 -12 18 -33 36 -20 19 -36 43 -36 55 0 18
-6 22 -30 22 -17 0 -30 5 -30 13 0 7 -11 21 -25 31 -14 11 -25 29 -25 42 0 20
-5 24 -30 24 -16 0 -30 5 -30 10 0 20 -61 70 -83 69 -17 -1 -18 -2 -4 -6z"/>
<path d="M15790 15120 c0 -49 1 -50 29 -50 l29 0 4 -127 c3 -95 9 -136 21
-158 16 -29 17 -24 17 146 l0 175 -33 32 c-49 48 -67 43 -67 -18z"/>
<path d="M16238 14458 c-2 -216 0 -394 5 -396 4 -2 7 -12 7 -22 0 -20 40 -103
53 -108 4 -2 7 -10 7 -18 0 -8 10 -14 25 -14 22 0 25 -4 25 -35 0 -28 4 -35
20 -35 15 0 20 -7 20 -25 0 -22 4 -25 35 -25 31 0 35 -3 35 -25 0 -18 5 -25
20 -25 16 0 20 -7 20 -30 0 -25 4 -30 25 -30 18 0 25 -5 25 -20 0 -16 7 -20
30 -20 17 0 30 -4 30 -10 0 -5 14 -10 30 -10 l30 0 0 459 c0 252 3 473 6 490
6 26 4 31 -14 31 -11 0 -22 8 -25 20 -6 23 -45 40 -93 40 -30 0 -34 3 -34 25
0 18 -5 25 -20 25 -11 0 -20 5 -20 10 0 6 -11 10 -24 10 -13 0 -38 3 -55 6
-26 6 -31 11 -31 35 0 26 -4 29 -30 29 -16 0 -30 5 -30 10 0 6 -11 10 -25 10
-18 0 -25 5 -25 20 0 11 -4 20 -10 20 -5 0 -10 -152 -12 -392z"/>
</g>
</svg>
